<mxfile host="65bd71144e">
    <diagram id="q_xZ7iSY3BvQjYLEaZ9Q" name="用例概览">
        <mxGraphModel dx="1256" dy="678" grid="1" gridSize="10" guides="1" tooltips="1" connect="1" arrows="1" fold="1" page="1" pageScale="1" pageWidth="827" pageHeight="1169" math="0" shadow="0">
            <root>
                <mxCell id="0"/>
                <mxCell id="1" parent="0"/>
                <mxCell id="rANdPYTnl141sEH0bHgk-7" style="edgeStyle=none;html=1;endArrow=none;endFill=0;" parent="1" source="yeteRncxJKpvOw-vdha9-1" target="rANdPYTnl141sEH0bHgk-2" edge="1">
                    <mxGeometry relative="1" as="geometry"/>
                </mxCell>
                <mxCell id="rANdPYTnl141sEH0bHgk-10" style="edgeStyle=none;html=1;entryX=0;entryY=0.5;entryDx=0;entryDy=0;endArrow=none;endFill=0;" parent="1" source="yeteRncxJKpvOw-vdha9-1" target="rANdPYTnl141sEH0bHgk-9" edge="1">
                    <mxGeometry relative="1" as="geometry"/>
                </mxCell>
                <mxCell id="rANdPYTnl141sEH0bHgk-14" style="edgeStyle=none;html=1;endArrow=none;endFill=0;entryX=0;entryY=0.5;entryDx=0;entryDy=0;" parent="1" source="yeteRncxJKpvOw-vdha9-1" target="rANdPYTnl141sEH0bHgk-13" edge="1">
                    <mxGeometry relative="1" as="geometry"/>
                </mxCell>
                <mxCell id="yeteRncxJKpvOw-vdha9-1" value="系统管理员" style="shape=umlActor;verticalLabelPosition=bottom;verticalAlign=top;html=1;" parent="1" vertex="1">
                    <mxGeometry x="80" y="380" width="30" height="62" as="geometry"/>
                </mxCell>
                <mxCell id="rANdPYTnl141sEH0bHgk-2" value="用户管理" style="ellipse;whiteSpace=wrap;html=1;" parent="1" vertex="1">
                    <mxGeometry x="250" y="280" width="140" height="70" as="geometry"/>
                </mxCell>
                <mxCell id="rANdPYTnl141sEH0bHgk-9" value="资源管理" style="ellipse;whiteSpace=wrap;html=1;" parent="1" vertex="1">
                    <mxGeometry x="260" y="390" width="140" height="70" as="geometry"/>
                </mxCell>
                <mxCell id="rANdPYTnl141sEH0bHgk-13" value="故障管理" style="ellipse;whiteSpace=wrap;html=1;" parent="1" vertex="1">
                    <mxGeometry x="260" y="490" width="140" height="70" as="geometry"/>
                </mxCell>
            </root>
        </mxGraphModel>
    </diagram>
</mxfile>